<svg width="742" height="751" viewBox="0 0 742 751" fill="none" xmlns="http://www.w3.org/2000/svg">
<g id="undraw_resume_1hqp 1">
<g id="Main">
<path id="Vector" d="M570 73H19V751H570V73Z" fill="url(#paint0_linear)"/>
<path id="Vector_2" d="M562.17 80.56H26.6V739H562.17V80.56Z" fill="#F5F5F5"/>
<path id="Vector_3" d="M562.17 80H26.6V161.73H562.17V80Z" fill="#6C63FF"/>
<path id="Vector_4" d="M83.98 89.21H40.79V99.57H83.98V89.21Z" fill="white"/>
<path id="Vector_5" d="M83.98 108.78H40.79V119.14H83.98V108.78Z" fill="white"/>
<path id="Vector_6" d="M83.98 128.35H40.79V138.71H83.98V128.35Z" fill="white"/>
<path id="Vector_7" d="M591 175H0V394H591V175Z" fill="url(#paint1_linear)"/>
<path id="Vector_8" d="M583.76 182.46H5V386.8H583.76V182.46Z" fill="white"/>
<path id="Vector_9" d="M274.63 258.72H129.02V269.08H274.63V258.72Z" fill="#BDBDBD"/>
<path id="Vector_10" d="M274.63 300.17H129.02V310.53H274.63V300.17Z" fill="#69F0AE"/>
<path id="Vector_11" d="M549.82 279.44H129.02V289.8H549.82V279.44Z" fill="#E0E0E0"/>
<path id="Vector_12" d="M66.7 308.8C81.0097 308.8 92.61 297.974 92.61 284.62C92.61 271.266 81.0097 260.44 66.7 260.44C52.3903 260.44 40.79 271.266 40.79 284.62C40.79 297.974 52.3903 308.8 66.7 308.8Z" fill="#69F0AE"/>
<path id="Vector_13" d="M741.38 0.670013H202.62V709H741.38V0.670013Z" fill="url(#paint2_linear)"/>
<path id="Vector_14" d="M742 0H202V269.98H742V0Z" fill="url(#paint3_linear)"/>
<path id="Vector_15" d="M734.49 6.14999H209.52V698H734.49V6.14999Z" fill="white"/>
<path id="Vector_16" d="M735.09 5.5H208.91V269.19H735.09V5.5Z" fill="#6C63FF"/>
<path id="Vector_17" d="M462.32 343.59H319.59V354.48H462.32V343.59Z" fill="#BDBDBD"/>
<path id="Vector_18" d="M462.32 387.13H319.59V398.02H462.32V387.13Z" fill="#F5F5F5"/>
<path id="Vector_19" d="M692.15 365.36H319.59V376.25H692.15V365.36Z" fill="#69F0AE"/>
<g id="Vector_20" filter="url(#filter0_d)">
<path d="M557.88 104.08H415.15V114.97H557.88V104.08Z" fill="white"/>
</g>
<g id="Vector_21" filter="url(#filter1_d)">
<path d="M644.98 128.28H415.15V139.17H644.98V128.28Z" fill="white"/>
</g>
<g id="Vector_22" opacity="0.2" filter="url(#filter2_d)">
<path d="M596.42 159.72H463.69C460.929 159.72 458.69 161.959 458.69 164.72V166.82C458.69 169.581 460.929 171.82 463.69 171.82H596.42C599.181 171.82 601.42 169.581 601.42 166.82V164.72C601.42 161.959 599.181 159.72 596.42 159.72Z" fill="black"/>
</g>
<path id="Vector_23" d="M258.5 381.69C272.528 381.69 283.9 370.318 283.9 356.29C283.9 342.262 272.528 330.89 258.5 330.89C244.472 330.89 233.1 342.262 233.1 356.29C233.1 370.318 244.472 381.69 258.5 381.69Z" fill="#69F0AE"/>
<path id="Vector_24" d="M462.32 448.82H319.59V459.71H462.32V448.82Z" fill="#BDBDBD"/>
<path id="Vector_25" d="M462.32 492.37H319.59V503.26H462.32V492.37Z" fill="#F5F5F5"/>
<path id="Vector_26" d="M692.15 470.59H319.59V481.48H692.15V470.59Z" fill="#E0E0E0"/>
<path id="Vector_27" d="M258.5 486.92C272.528 486.92 283.9 475.548 283.9 461.52C283.9 447.492 272.528 436.12 258.5 436.12C244.472 436.12 233.1 447.492 233.1 461.52C233.1 475.548 244.472 486.92 258.5 486.92Z" fill="#E0E0E0"/>
<path id="Vector_28" d="M462.32 554.06H319.59V564.95H462.32V554.06Z" fill="#BDBDBD"/>
<path id="Vector_29" d="M462.32 597.6H319.59V608.49H462.32V597.6Z" fill="#F5F5F5"/>
<path id="Vector_30" d="M692.15 575.83H319.59V586.72H692.15V575.83Z" fill="#E0E0E0"/>
<path id="Vector_31" d="M258.5 592.16C272.528 592.16 283.9 580.788 283.9 566.76C283.9 552.732 272.528 541.36 258.5 541.36C244.472 541.36 233.1 552.732 233.1 566.76C233.1 580.788 244.472 592.16 258.5 592.16Z" fill="#E0E0E0"/>
<path id="Vector_32" d="M232.9 132.73C233.063 145.539 236.737 158.058 243.523 168.923C250.309 179.789 259.947 188.583 271.386 194.349C282.825 200.116 295.627 202.632 308.398 201.625C321.169 200.618 333.418 196.125 343.812 188.637C354.206 181.149 362.345 170.953 367.344 159.158C372.343 147.363 374.01 134.423 372.163 121.747C370.315 109.07 365.025 97.1441 356.867 87.2668C348.71 77.3895 337.999 69.9401 325.9 65.73L326.12 83.73C326.176 90.0139 323.744 96.0648 319.354 100.561C314.964 105.058 308.973 107.635 302.69 107.73V107.73C296.406 107.786 290.355 105.354 285.859 100.964C281.362 96.5741 278.785 90.5834 278.69 84.3L278.47 66.3C264.963 71.3399 253.339 80.4233 245.184 92.3116C237.029 104.2 232.739 118.314 232.9 132.73V132.73Z" fill="url(#paint4_linear)"/>
<path id="Vector_33" d="M373 125.36C372.986 112.549 369.457 99.9879 362.797 89.0444C356.137 78.1009 346.601 69.1949 335.229 63.2966C323.857 57.3983 311.084 54.7339 298.302 55.5936C285.52 56.4533 273.22 60.8042 262.74 68.1723C252.26 75.5404 244.003 85.6431 238.868 97.38C233.734 109.117 231.919 122.038 233.62 134.735C235.322 147.432 240.476 159.419 248.52 169.389C256.564 179.36 267.19 186.932 279.24 191.28V173.28C279.243 166.977 281.746 160.933 286.201 156.475C290.656 152.017 296.697 149.508 303 149.5V149.5C309.285 149.518 315.308 152.023 319.752 156.468C324.197 160.912 326.701 166.935 326.72 173.22V191.22C340.268 186.33 351.979 177.383 360.261 165.599C368.542 153.814 372.99 139.763 373 125.36V125.36Z" fill="#0466C8"/>
<path id="Vector_34" d="M303 142.65C317.868 142.65 329.92 130.598 329.92 115.73C329.92 100.862 317.868 88.81 303 88.81C288.132 88.81 276.08 100.862 276.08 115.73C276.08 130.598 288.132 142.65 303 142.65Z" fill="white" stroke="white" stroke-miterlimit="10"/>
<path id="Vector_35" d="M303 149.5C296.715 149.518 290.692 152.023 286.248 156.468C281.803 160.912 279.298 166.935 279.28 173.22V191.22C294.613 196.714 311.377 196.714 326.71 191.22V173.22C326.692 166.936 324.188 160.915 319.746 156.471C315.304 152.027 309.284 149.521 303 149.5V149.5Z" fill="#C2EFFF" stroke="#C2EFFF" stroke-miterlimit="10"/>
<g id="Vector_36">
<path d="M275.85 114.24C273.698 110.062 272.714 105.381 273 100.69C273.319 95.9701 275.473 91.5626 279 88.41C282.92 85.07 288.24 83.88 293.38 83.47C298.52 83.06 303.72 83.31 308.78 82.31C312.96 81.4641 316.929 79.7961 320.459 77.4031C323.988 75.01 327.007 71.9396 329.34 68.37C329.66 72.37 329.99 76.37 329.23 80.22C328.47 84.07 326.47 87.93 323.09 90.01C327.18 88.12 326.73 92.55 325.85 95.21C327.85 97.66 332.85 98.06 333.05 101.21C333.469 104.365 333.126 107.575 332.05 110.57C330.81 113.49 332.14 118.64 328.98 118.86" fill="white"/>
<path d="M275.85 114.24C273.698 110.062 272.714 105.381 273 100.69C273.319 95.9701 275.473 91.5626 279 88.41C282.92 85.07 288.24 83.88 293.38 83.47C298.52 83.06 303.72 83.31 308.78 82.31C312.96 81.4641 316.929 79.7961 320.459 77.4031C323.988 75.01 327.007 71.9396 329.34 68.37C329.66 72.37 329.99 76.37 329.23 80.22C328.47 84.07 326.47 87.93 323.09 90.01C327.18 88.12 326.73 92.55 325.85 95.21C327.85 97.66 332.85 98.06 333.05 101.21C333.469 104.365 333.126 107.575 332.05 110.57C330.81 113.49 332.14 118.64 328.98 118.86" stroke="white" stroke-miterlimit="10"/>
</g>
<path id="Vector_37" d="M324.51 89.37C324.51 89.37 343.3 91.01 329.92 118.89Z" fill="white"/>
<g id="Rectangle 1" style="mix-blend-mode:darken" filter="url(#filter3_d)">
<rect x="210" y="5" width="524" height="34" fill="#69F0AE"/>
</g>
</g>
</g>
<defs>
<filter id="filter0_d" x="411.15" y="104.08" width="150.73" height="18.89" filterUnits="userSpaceOnUse" color-interpolation-filters="sRGB">
<feFlood flood-opacity="0" result="BackgroundImageFix"/>
<feColorMatrix in="SourceAlpha" type="matrix" values="0 0 0 0 0 0 0 0 0 0 0 0 0 0 0 0 0 0 127 0"/>
<feOffset dy="4"/>
<feGaussianBlur stdDeviation="2"/>
<feColorMatrix type="matrix" values="0 0 0 0 0 0 0 0 0 0 0 0 0 0 0 0 0 0 0.25 0"/>
<feBlend mode="normal" in2="BackgroundImageFix" result="effect1_dropShadow"/>
<feBlend mode="normal" in="SourceGraphic" in2="effect1_dropShadow" result="shape"/>
</filter>
<filter id="filter1_d" x="411.15" y="128.28" width="237.83" height="18.89" filterUnits="userSpaceOnUse" color-interpolation-filters="sRGB">
<feFlood flood-opacity="0" result="BackgroundImageFix"/>
<feColorMatrix in="SourceAlpha" type="matrix" values="0 0 0 0 0 0 0 0 0 0 0 0 0 0 0 0 0 0 127 0"/>
<feOffset dy="4"/>
<feGaussianBlur stdDeviation="2"/>
<feColorMatrix type="matrix" values="0 0 0 0 0 0 0 0 0 0 0 0 0 0 0 0 0 0 0.25 0"/>
<feBlend mode="normal" in2="BackgroundImageFix" result="effect1_dropShadow"/>
<feBlend mode="normal" in="SourceGraphic" in2="effect1_dropShadow" result="shape"/>
</filter>
<filter id="filter2_d" x="454.69" y="159.72" width="150.73" height="24.1" filterUnits="userSpaceOnUse" color-interpolation-filters="sRGB">
<feFlood flood-opacity="0" result="BackgroundImageFix"/>
<feColorMatrix in="SourceAlpha" type="matrix" values="0 0 0 0 0 0 0 0 0 0 0 0 0 0 0 0 0 0 127 0"/>
<feOffset dy="8"/>
<feGaussianBlur stdDeviation="2"/>
<feColorMatrix type="matrix" values="0 0 0 0 0 0 0 0 0 0 0 0 0 0 0 0 0 0 0.25 0"/>
<feBlend mode="normal" in2="BackgroundImageFix" result="effect1_dropShadow"/>
<feBlend mode="normal" in="SourceGraphic" in2="effect1_dropShadow" result="shape"/>
</filter>
<filter id="filter3_d" x="206" y="5" width="532" height="42" filterUnits="userSpaceOnUse" color-interpolation-filters="sRGB">
<feFlood flood-opacity="0" result="BackgroundImageFix"/>
<feColorMatrix in="SourceAlpha" type="matrix" values="0 0 0 0 0 0 0 0 0 0 0 0 0 0 0 0 0 0 127 0"/>
<feOffset dy="4"/>
<feGaussianBlur stdDeviation="2"/>
<feColorMatrix type="matrix" values="0 0 0 0 0 0 0 0 0 0 0 0 0 0 0 0 0 0 0.25 0"/>
<feBlend mode="normal" in2="BackgroundImageFix" result="effect1_dropShadow"/>
<feBlend mode="normal" in="SourceGraphic" in2="effect1_dropShadow" result="shape"/>
</filter>
<linearGradient id="paint0_linear" x1="294.5" y1="751" x2="294.5" y2="73" gradientUnits="userSpaceOnUse">
<stop stop-color="#808080" stop-opacity="0.25"/>
<stop offset="0.54" stop-color="#808080" stop-opacity="0.12"/>
<stop offset="1" stop-color="#808080" stop-opacity="0.1"/>
</linearGradient>
<linearGradient id="paint1_linear" x1="174641" y1="86461" x2="174641" y2="38500" gradientUnits="userSpaceOnUse">
<stop stop-color="#808080" stop-opacity="0.25"/>
<stop offset="0.54" stop-color="#808080" stop-opacity="0.12"/>
<stop offset="1" stop-color="#808080" stop-opacity="0.1"/>
</linearGradient>
<linearGradient id="paint2_linear" x1="254497" y1="502207" x2="254497" y2="475.271" gradientUnits="userSpaceOnUse">
<stop stop-color="#808080" stop-opacity="0.25"/>
<stop offset="0.54" stop-color="#808080" stop-opacity="0.12"/>
<stop offset="1" stop-color="#808080" stop-opacity="0.1"/>
</linearGradient>
<linearGradient id="paint3_linear" x1="472" y1="269.98" x2="472" y2="0" gradientUnits="userSpaceOnUse">
<stop stop-color="#B3B3B3" stop-opacity="0.25"/>
<stop offset="0.54" stop-color="#B3B3B3" stop-opacity="0.1"/>
<stop offset="1" stop-color="#B3B3B3" stop-opacity="0.05"/>
</linearGradient>
<linearGradient id="paint4_linear" x1="307.525" y1="200.302" x2="300.438" y2="63.5793" gradientUnits="userSpaceOnUse">
<stop stop-opacity="0.55"/>
<stop offset="0.401042" stop-opacity="0.110038"/>
<stop offset="0.55" stop-opacity="0.09"/>
<stop offset="1" stop-opacity="0.02"/>
</linearGradient>
</defs>
</svg>
