<svg width="150" height="150" viewBox="0 0 875 748" fill="none" xmlns="http://www.w3.org/2000/svg">
<g id="undraw_hiring_cyhs 1" clip-path="url(#clip0)">
<g id="Group" opacity="0.5">
<path id="Vector" opacity="0.5" d="M482.803 0.0246575L401.141 541.269L792.867 600.372L874.529 59.1278L482.803 0.0246575Z" fill="url(#paint0_linear)"/>
</g>
<path id="Vector_2" d="M487.191 4.76531L407.334 534.045L789.093 591.644L868.95 62.3647L487.191 4.76531Z" fill="#F5F5F5"/>
<path id="Vector_3" d="M778.926 283.54L503.394 241.968L500.874 258.669L776.406 300.241L778.926 283.54Z" fill="#E0E0E0"/>
<path id="Vector_4" d="M772.627 325.283L497.096 283.711L494.576 300.412L770.108 341.984L772.627 325.283Z" fill="#E0E0E0"/>
<path id="Vector_5" d="M799.077 149.945L657.133 128.529L654.613 145.23L796.557 166.646L799.077 149.945Z" fill="#E0E0E0"/>
<path id="Vector_6" d="M780.26 189.81L663.363 172.172L660.843 188.873L777.74 206.511L780.26 189.81Z" fill="#6C63FF"/>
<path id="Vector_7" d="M732.931 361.994L490.792 325.461L488.272 342.162L730.411 378.695L732.931 361.994Z" fill="#E0E0E0"/>
<path id="Vector_8" d="M693.225 398.704L484.487 367.21L481.967 383.911L690.705 415.405L693.225 398.704Z" fill="#E0E0E0"/>
<path id="Vector_9" d="M661.88 436.672L478.189 408.956L475.67 425.657L659.36 453.372L661.88 436.672Z" fill="#E0E0E0"/>
<path id="Vector_10" d="M705.676 485.978L471.892 450.705L469.372 467.406L703.156 502.679L705.676 485.978Z" fill="#E0E0E0"/>
<path id="Vector_11" d="M557.441 506.306L465.601 492.449L463.081 509.15L554.922 523.007L557.441 506.306Z" fill="#6C63FF"/>
<g id="Group_2" opacity="0.5">
<path id="Vector_12" opacity="0.5" d="M630.23 151.5C631.68 141.879 630.615 132.046 627.137 122.959C623.66 113.872 617.889 105.839 610.387 99.6437C602.885 93.4481 593.906 89.3003 584.325 87.6039C574.745 85.9076 564.888 86.7204 555.714 89.9634C546.541 93.2064 538.363 98.7691 531.977 106.11C525.591 113.451 521.214 122.32 519.273 131.854C517.331 141.388 517.891 151.263 520.898 160.516C523.904 169.77 529.255 178.088 536.43 184.66C536.43 184.74 536.43 184.83 536.43 184.91C537.983 186.938 539.924 188.638 542.14 189.91L542.25 189.67C544.52 192.3 554.97 197.54 567.6 199.41H567.88C575.88 200.63 584.77 200.52 593.02 197.54C593.02 197.54 593.11 197.4 593.26 197.14C595.332 196.522 597.291 195.573 599.06 194.33L599.24 193.71C607.439 189.711 614.543 183.78 619.941 176.427C625.339 169.074 628.87 160.52 630.23 151.5V151.5Z" fill="url(#paint1_linear)"/>
</g>
<g id="Group_3" opacity="0.5">
<path id="Vector_13" opacity="0.5" d="M392.527 77.7908L0.328186 141.176L87.9074 683.073L480.106 619.687L392.527 77.7908Z" fill="url(#paint2_linear)"/>
</g>
<path id="Vector_14" d="M386.629 80.9547L5.63513 143.413L92.229 671.632L473.223 609.174L386.629 80.9547Z" fill="#F5F5F5"/>
<path id="Vector_15" d="M368.968 319.043L93.989 364.122L96.7214 380.789L371.701 335.71L368.968 319.043Z" fill="#E0E0E0"/>
<path id="Vector_16" d="M375.798 360.709L100.819 405.788L103.551 422.456L378.531 377.377L375.798 360.709Z" fill="#E0E0E0"/>
<path id="Vector_17" d="M347.122 185.72L205.463 208.943L208.195 225.611L349.854 202.388L347.122 185.72Z" fill="#E0E0E0"/>
<path id="Vector_18" d="M341.448 229.436L224.785 248.561L227.518 265.229L344.181 246.104L341.448 229.436Z" fill="#6C63FF"/>
<path id="Vector_19" d="M349.303 407.837L107.649 447.453L110.381 464.12L352.035 424.505L349.303 407.837Z" fill="#E0E0E0"/>
<path id="Vector_20" d="M322.796 454.957L114.477 489.108L117.209 505.775L325.529 471.624L322.796 454.957Z" fill="#E0E0E0"/>
<path id="Vector_21" d="M304.631 500.726L121.308 530.779L124.04 547.447L307.363 517.394L304.631 500.726Z" fill="#E0E0E0"/>
<path id="Vector_22" d="M361.454 534.186L128.138 572.435L130.871 589.102L364.187 550.853L361.454 534.186Z" fill="#E0E0E0"/>
<path id="Vector_23" d="M226.632 599.078L134.975 614.104L137.708 630.772L229.364 615.746L226.632 599.078Z" fill="#6C63FF"/>
<g id="Group_4" opacity="0.5">
<path id="Vector_24" opacity="0.5" d="M192.04 235.46C190.42 225.59 186.273 216.306 180.002 208.514C173.731 200.722 165.549 194.686 156.253 190.993C146.957 187.301 136.863 186.078 126.954 187.444C117.046 188.809 107.659 192.717 99.7084 198.786C91.7577 204.855 85.5135 212.879 81.5837 222.077C77.6538 231.275 76.1722 241.334 77.2828 251.275C78.3935 261.215 82.0587 270.699 87.9217 278.803C93.7847 286.907 101.646 293.355 110.74 297.52L110.82 297.77C112.981 299.253 115.415 300.293 117.98 300.83V300.56C121.03 302.42 132.91 304.25 145.86 302.09H146.14C154.35 300.76 163.01 297.84 170.14 292.32C170.14 292.32 170.14 292.16 170.24 291.86C172.073 290.601 173.69 289.055 175.03 287.28C175.03 287.053 175.03 286.833 175.03 286.62C181.804 280.113 186.892 272.055 189.855 263.141C192.819 254.228 193.569 244.728 192.04 235.46V235.46Z" fill="url(#paint3_linear)"/>
</g>
<g id="Group_5" opacity="0.5">
<path id="Vector_25" opacity="0.5" d="M678.79 165.47H282.63V712.84H678.79V165.47Z" fill="url(#paint4_linear)"/>
</g>
<path id="Vector_26" d="M673.75 169.5H287.67V704.77H673.75V169.5Z" fill="white"/>
<g id="HumFig">
<g id="Vector_27" filter="url(#filter0_d)">
<path d="M628.308 149.196C632.812 119.34 612.261 91.4859 582.406 86.9813C552.55 82.4768 524.696 103.028 520.191 132.883C515.687 162.739 536.238 190.593 566.093 195.098C595.949 199.602 623.803 179.051 628.308 149.196Z" fill="#C2E9FF"/>
</g>
<path id="Vector_28" d="M549.33 159.05C549.33 159.05 536.33 158.16 536.16 182.14C537.669 184.1 539.552 185.742 541.7 186.97L552.64 163.54L549.33 159.05Z" fill="#FDA57D"/>
<path id="Vector_29" d="M591.13 165.36C591.13 165.36 603.85 168.36 596.91 191.31C594.891 192.745 592.607 193.765 590.19 194.31L586.64 168.7L591.13 165.36Z" fill="#FDA57D"/>
<path id="Vector_30" d="M555.69 120.69C555.69 120.69 546.87 137.6 543.78 135.42C543.78 135.42 571.84 168.15 604.53 144.58C601.987 138.209 598.69 132.166 594.71 126.58L555.69 120.69Z" fill="#333333"/>
<path id="Vector_31" d="M600.631 125.773C602.627 112.541 593.519 100.196 580.287 98.1996C567.055 96.2031 554.71 105.311 552.713 118.544C550.717 131.776 559.825 144.121 573.057 146.117C586.289 148.114 598.634 139.005 600.631 125.773Z" fill="#333333"/>
<path id="Vector_32" opacity="0.1" d="M590.88 165.32L549.08 159.02L542.66 175.15C542.66 175.15 539.2 182.54 541.54 186.38C543.88 190.22 569.33 201.97 590.54 194.38C592.919 190.179 593.853 185.313 593.2 180.53C592.15 172.39 592.73 179.89 592.73 179.89L590.88 165.32Z" fill="black"/>
<path id="Vector_33" opacity="0.1" d="M591.44 165.41L549.64 159.11L543.23 175.23C543.23 175.23 539.77 182.62 542.11 186.46C544.45 190.3 569.9 202.05 591.11 194.46C593.489 190.259 594.423 185.393 593.77 180.61C592.72 172.47 593.3 179.97 593.3 179.97L591.44 165.41Z" fill="black"/>
<path id="Vector_34" d="M591.13 165.36L549.33 159.06L542.91 175.19C542.91 175.19 539.45 182.58 541.79 186.42C544.13 190.26 569.58 202.01 590.79 194.42C593.169 190.219 594.103 185.353 593.45 180.57C592.4 172.43 592.98 179.93 592.98 179.93L591.13 165.36Z" fill="#FDD835"/>
<path id="Vector_35" opacity="0.1" d="M564.231 147.165L580.952 149.687L578.675 164.777C578.409 166.541 577.452 168.128 576.016 169.188C574.58 170.248 572.782 170.693 571.017 170.427L567.595 169.911C565.83 169.645 564.243 168.688 563.184 167.252C562.124 165.816 561.678 164.017 561.945 162.252L564.221 147.163L564.231 147.165Z" fill="black"/>
<path id="Vector_36" d="M564.313 146.545L581.033 149.068L578.757 164.157C578.491 165.922 577.534 167.509 576.098 168.568C574.661 169.628 572.863 170.074 571.098 169.808L567.687 169.293C565.922 169.027 564.335 168.07 563.275 166.634C562.216 165.197 561.77 163.399 562.036 161.634L564.313 146.545Z" fill="#FDA57D"/>
<path id="Vector_37" opacity="0.1" d="M564 148.91C569.084 151.737 575.012 152.648 580.71 151.48L581.02 149.43L564.3 146.91L564 148.91Z" fill="black"/>
<path id="Vector_38" d="M599.846 130.97C601.843 117.738 592.734 105.393 579.502 103.397C566.27 101.4 553.925 110.508 551.929 123.741C549.932 136.973 559.041 149.318 572.273 151.314C585.505 153.311 597.85 144.202 599.846 130.97Z" fill="#FDA57D"/>
<path id="Vector_39" d="M554.3 114.78L600 121.67C600 121.67 598.88 102.67 581.43 101.2C563.98 99.73 554.3 114.78 554.3 114.78Z" fill="#333333"/>
<path id="Vector_40" d="M554.796 123.12C555.144 120.81 554.431 118.787 553.202 118.602C551.973 118.416 550.695 120.139 550.346 122.449C549.998 124.759 550.711 126.782 551.94 126.967C553.169 127.152 554.447 125.43 554.796 123.12Z" fill="#FDA57D"/>
<path id="Vector_41" d="M601.61 130.187C601.959 127.877 601.245 125.854 600.016 125.669C598.788 125.483 597.509 127.206 597.161 129.516C596.812 131.826 597.526 133.849 598.754 134.034C599.983 134.219 601.262 132.497 601.61 130.187Z" fill="#FDA57D"/>
<path id="Vector_42" opacity="0.1" d="M554.23 115.4L599.93 122.29C599.93 122.29 598.81 103.29 581.36 101.82C563.91 100.35 554.23 115.4 554.23 115.4Z" fill="black"/>
<g id="Vector_43" filter="url(#filter1_d)">
<path d="M143.969 300.274C174.598 295.252 195.358 266.352 190.337 235.722C185.315 205.093 156.415 184.333 125.785 189.354C95.1556 194.376 74.3959 223.276 79.4172 253.906C84.4385 284.535 113.339 305.295 143.969 300.274Z" fill="#C2E9FF"/>
</g>
<path id="Vector_44" d="M114.42 270.45C114.42 270.45 101.42 273.7 108.82 297.2C110.915 298.65 113.278 299.67 115.77 300.2L119.08 273.82L114.42 270.45Z" fill="#4D8AF0"/>
<path id="Vector_45" d="M157.3 263.42C157.3 263.42 170.69 262.33 171.14 286.99C169.611 289.011 167.698 290.71 165.51 291.99L153.95 268.05L157.3 263.42Z" fill="#4D8AF0"/>
<path id="Vector_46" d="M133.505 250.281C147.081 248.056 156.282 235.246 154.057 221.67C151.831 208.093 139.021 198.892 125.445 201.118C111.869 203.343 102.667 216.153 104.893 229.729C107.119 243.306 119.929 252.507 133.505 250.281Z" fill="#333333"/>
<path id="Vector_47" d="M157.05 263.46L114.17 270.46L112.98 288.27C112.98 288.27 111.98 296.6 115.43 299.61C118.88 302.62 147.55 306.09 165.84 291.93C166.841 287.069 166.219 282.014 164.07 277.54C160.47 269.91 163.4 277.06 163.4 277.06L157.05 263.46Z" fill="#4D8AF0"/>
<path id="Vector_48" d="M157.62 263.37L114.74 270.37L113.55 288.18C113.55 288.18 112.55 296.51 116 299.52C119.45 302.53 148.12 306 166.41 291.84C167.411 286.979 166.789 281.924 164.64 277.45C161.04 269.82 163.97 276.97 163.97 276.97L157.62 263.37Z" fill="#4D8AF0"/>
<path id="Vector_49" d="M157.3 263.42L114.42 270.42L113.23 288.26C113.23 288.26 112.23 296.59 115.68 299.6C119.13 302.61 147.8 306.08 166.09 291.92C167.091 287.059 166.469 282.004 164.32 277.53C160.72 269.9 163.65 277.05 163.65 277.05L157.3 263.42Z" fill="#4D8AF0"/>
<path id="Vector_50" opacity="0.1" d="M125.254 254.053L142.405 251.241L144.972 266.902C145.261 268.663 144.838 270.467 143.797 271.917C142.755 273.367 141.181 274.343 139.419 274.632L135.541 275.268C133.78 275.556 131.976 275.134 130.526 274.092C129.076 273.051 128.1 271.477 127.811 269.715L125.244 254.054L125.254 254.053Z" fill="black"/>
<path id="Vector_51" d="M125.151 253.417L142.302 250.605L144.87 266.266C145.159 268.028 144.736 269.832 143.694 271.281C142.653 272.731 141.079 273.708 139.317 273.997L135.439 274.632C133.678 274.921 131.874 274.498 130.424 273.457C128.974 272.416 127.998 270.841 127.709 269.08L125.141 253.419L125.151 253.417Z" fill="#FDA57D"/>
<path id="Vector_52" opacity="0.1" d="M125.57 255.89C131.436 257.052 137.524 256.073 142.73 253.13L142.38 251.02L125.23 253.84L125.57 255.89Z" fill="black"/>
<path id="Vector_53" d="M134.387 255.619C147.963 253.393 157.165 240.583 154.939 227.007C152.713 213.431 139.904 204.229 126.327 206.455C112.751 208.681 103.55 221.49 105.775 235.067C108.001 248.643 120.811 257.844 134.387 255.619Z" fill="#FDA57D"/>
<path id="Vector_54" opacity="0.1" d="M105.41 226.19L152.3 218.51C152.3 218.51 145.19 200.23 127.67 204.35C110.15 208.47 105.41 226.19 105.41 226.19Z" fill="black"/>
<path id="Vector_55" d="M105.3 225.56L152.23 217.87C152.23 217.87 145.12 199.59 127.6 203.71C110.08 207.83 105.3 225.56 105.3 225.56Z" fill="#333333"/>
<path id="Vector_56" d="M107.103 239.699C108.371 239.494 109.088 237.4 108.703 235.022C108.319 232.643 106.979 230.881 105.711 231.086C104.442 231.291 103.725 233.385 104.11 235.764C104.494 238.142 105.834 239.904 107.103 239.699Z" fill="#FDA57D"/>
<path id="Vector_57" d="M154.832 230.348C156.096 230.141 156.806 228.051 156.418 225.68C156.029 223.309 154.689 221.555 153.425 221.763C152.16 221.97 151.45 224.06 151.839 226.431C152.228 228.801 153.568 230.555 154.832 230.348Z" fill="#FDA57D"/>
<g id="Vector_58" filter="url(#filter2_d)">
<path d="M398.46 349.43C430.194 349.43 455.92 323.704 455.92 291.97C455.92 260.236 430.194 234.51 398.46 234.51C366.726 234.51 341 260.236 341 291.97C341 323.704 366.726 349.43 398.46 349.43Z" fill="#C2E9FF"/>
</g>
<path id="Vector_59" d="M375.92 313.86C375.92 313.86 362.23 314.97 365.85 339.97C367.728 341.771 369.944 343.181 372.37 344.12L380.07 318.05L375.92 313.86Z" fill="#A86749"/>
<path id="Vector_60" d="M420.35 313.86C420.35 313.86 434.04 314.97 430.42 339.97C428.543 341.771 426.326 343.181 423.9 344.12L416.23 317.97L420.35 313.86Z" fill="#A86749"/>
<path id="Vector_61" d="M376.51 272.97C376.51 272.97 375.46 276.04 373.96 279.59C370.7 287.35 374.42 317.17 382.22 320.35C390.97 323.92 402.48 326.2 414.43 321.84C424.82 318.05 428.02 284.11 420.68 275.84C419.82 274.84 418.92 273.91 417.98 272.97H376.51Z" fill="#333333"/>
<path id="Vector_62" d="M398.5 296.67C412.567 296.67 423.97 285.267 423.97 271.2C423.97 257.133 412.567 245.73 398.5 245.73C384.433 245.73 373.03 257.133 373.03 271.2C373.03 285.267 384.433 296.67 398.5 296.67Z" fill="#333333"/>
<path id="Vector_63" opacity="0.1" d="M420.09 313.86H375.66L371.51 331.63C371.51 331.63 369.07 339.86 372.1 343.48C375.13 347.1 403.43 355.33 424.23 344.07C426.042 339.331 426.25 334.128 424.82 329.26C422.45 320.97 424.23 328.67 424.23 328.67L420.09 313.86Z" fill="black"/>
<path id="Vector_64" opacity="0.1" d="M420.68 313.86H376.23L372.08 331.63C372.08 331.63 369.64 339.86 372.67 343.48C375.7 347.1 404 355.33 424.8 344.07C426.612 339.331 426.819 334.128 425.39 329.26C423.02 320.97 424.8 328.67 424.8 328.67L420.68 313.86Z" fill="black"/>
</g>
<path id="Vector_65" d="M420.35 313.86H375.92L371.77 331.63C371.77 331.63 369.33 339.86 372.36 343.48C375.39 347.1 403.69 355.33 424.49 344.07C426.302 339.331 426.509 334.128 425.08 329.26C422.71 320.97 424.49 328.67 424.49 328.67L420.35 313.86Z" fill="#3AD29F"/>
<path id="Vector_66" opacity="0.1" d="M389.55 299.11H407.32V315.49C407.32 317.275 406.611 318.987 405.349 320.249C404.087 321.511 402.375 322.22 400.59 322.22H396.27C394.485 322.22 392.773 321.511 391.511 320.249C390.249 318.987 389.54 317.275 389.54 315.49V299.11H389.55Z" fill="black"/>
<path id="Vector_67" d="M389.55 298.45H407.32V314.83C407.32 316.615 406.611 318.327 405.349 319.589C404.087 320.851 402.375 321.56 400.59 321.56H396.27C394.485 321.56 392.773 320.851 391.511 319.589C390.249 318.327 389.54 316.615 389.54 314.83V298.45H389.55Z" fill="#A86749"/>
<path id="Vector_68" opacity="0.1" d="M389.58 300.97C395.313 303.094 401.617 303.094 407.35 300.97V298.79H389.58V300.97Z" fill="black"/>
<path id="Vector_69" d="M398.5 302.2C412.567 302.2 423.97 290.797 423.97 276.73C423.97 262.663 412.567 251.26 398.5 251.26C384.433 251.26 373.03 262.663 373.03 276.73C373.03 290.797 384.433 302.2 398.5 302.2Z" fill="#A86749"/>
<path id="Vector_70" d="M374.14 267.06H422.72C422.72 267.06 418.57 247.44 400.21 248.7C381.85 249.96 374.14 267.06 374.14 267.06Z" fill="#333333"/>
<path id="Vector_71" d="M373.56 280.09C374.869 280.09 375.93 278.102 375.93 275.65C375.93 273.198 374.869 271.21 373.56 271.21C372.251 271.21 371.19 273.198 371.19 275.65C371.19 278.102 372.251 280.09 373.56 280.09Z" fill="#A86749"/>
<path id="Vector_72" d="M423.32 280.09C424.629 280.09 425.69 278.102 425.69 275.65C425.69 273.198 424.629 271.21 423.32 271.21C422.011 271.21 420.95 273.198 420.95 275.65C420.95 278.102 422.011 280.09 423.32 280.09Z" fill="#A86749"/>
<path id="Vector_73" opacity="0.1" d="M374.14 267.71H422.72C422.72 267.71 418.57 248.09 400.21 249.35C381.85 250.61 374.14 267.71 374.14 267.71Z" fill="black"/>
<path id="Vector_74" d="M617.8 401.6H339.15V418.49H617.8V401.6Z" fill="#E0E0E0"/>
<path id="Vector_75" d="M617.8 443.82H339.15V460.71H617.8V443.82Z" fill="#E0E0E0"/>
<path id="Vector_76" d="M617.81 266.5H474.26V283.39H617.81V266.5Z" fill="#E0E0E0"/>
<path id="Vector_77" d="M605.14 308.72H486.92V325.61H605.14V308.72Z" fill="#6C63FF"/>
<path id="Vector_78" d="M584.03 486.04H339.15V502.93H584.03V486.04Z" fill="#E0E0E0"/>
<path id="Vector_79" d="M550.25 528.26H339.15V545.15H550.25V528.26Z" fill="#E0E0E0"/>
<path id="Vector_80" d="M524.92 570.49H339.15V587.38H524.92V570.49Z" fill="#E0E0E0"/>
<path id="Vector_81" d="M575.58 612.71H339.15V629.6H575.58V612.71Z" fill="#E0E0E0"/>
<path id="Vector_82" d="M432.03 654.93H339.15V671.82H432.03V654.93Z" fill="#6C63FF"/>
<g id="Group_6" opacity="0.5">
<path id="Vector_83" opacity="0.5" d="M652.07 747.95C698.677 747.95 736.46 710.167 736.46 663.56C736.46 616.953 698.677 579.17 652.07 579.17C605.463 579.17 567.68 616.953 567.68 663.56C567.68 710.167 605.463 747.95 652.07 747.95Z" fill="url(#paint5_linear)"/>
</g>
<g id="Tick">
<path id="Vector_84" d="M652.07 742.98C695.932 742.98 731.49 707.422 731.49 663.56C731.49 619.698 695.932 584.14 652.07 584.14C608.208 584.14 572.65 619.698 572.65 663.56C572.65 707.422 608.208 742.98 652.07 742.98Z" fill="#69F0AE"/>
<path id="Vector_85" d="M662.492 723.156C695.781 717.188 718.018 685.857 712.16 653.175C706.301 620.494 674.565 598.838 641.276 604.805C607.986 610.773 585.749 642.104 591.608 674.786C597.467 707.467 629.202 729.123 662.492 723.156Z" fill="#A06B9A"/>
<path id="Vector_86" d="M611.41 658.74L641.19 686.04L683.38 624L698.28 636.41L641.19 710.86L599 663.71L611.41 658.74Z" fill="white"/>
</g>
</g>
<defs>
<filter id="filter0_d" x="508.035" y="78.8251" width="132.429" height="132.429" filterUnits="userSpaceOnUse" color-interpolation-filters="sRGB">
<feFlood flood-opacity="0" result="BackgroundImageFix"/>
<feColorMatrix in="SourceAlpha" type="matrix" values="0 0 0 0 0 0 0 0 0 0 0 0 0 0 0 0 0 0 127 0"/>
<feOffset dy="4"/>
<feGaussianBlur stdDeviation="2"/>
<feColorMatrix type="matrix" values="0 0 0 0 0 0 0 0 0 0 0 0 0 0 0 0 0 0 0.25 0"/>
<feBlend mode="normal" in2="BackgroundImageFix" result="effect1_dropShadow"/>
<feBlend mode="normal" in="SourceGraphic" in2="effect1_dropShadow" result="shape"/>
</filter>
<filter id="filter1_d" x="66.3254" y="180.263" width="137.103" height="137.103" filterUnits="userSpaceOnUse" color-interpolation-filters="sRGB">
<feFlood flood-opacity="0" result="BackgroundImageFix"/>
<feColorMatrix in="SourceAlpha" type="matrix" values="0 0 0 0 0 0 0 0 0 0 0 0 0 0 0 0 0 0 127 0"/>
<feOffset dy="4"/>
<feGaussianBlur stdDeviation="2"/>
<feColorMatrix type="matrix" values="0 0 0 0 0 0 0 0 0 0 0 0 0 0 0 0 0 0 0.25 0"/>
<feBlend mode="normal" in2="BackgroundImageFix" result="effect1_dropShadow"/>
<feBlend mode="normal" in="SourceGraphic" in2="effect1_dropShadow" result="shape"/>
</filter>
<filter id="filter2_d" x="337" y="234.51" width="122.92" height="122.92" filterUnits="userSpaceOnUse" color-interpolation-filters="sRGB">
<feFlood flood-opacity="0" result="BackgroundImageFix"/>
<feColorMatrix in="SourceAlpha" type="matrix" values="0 0 0 0 0 0 0 0 0 0 0 0 0 0 0 0 0 0 127 0"/>
<feOffset dy="4"/>
<feGaussianBlur stdDeviation="2"/>
<feColorMatrix type="matrix" values="0 0 0 0 0 0 0 0 0 0 0 0 0 0 0 0 0 0 0.25 0"/>
<feBlend mode="normal" in2="BackgroundImageFix" result="effect1_dropShadow"/>
<feBlend mode="normal" in="SourceGraphic" in2="effect1_dropShadow" result="shape"/>
</filter>
<linearGradient id="paint0_linear" x1="597.004" y1="570.82" x2="678.666" y2="29.5763" gradientUnits="userSpaceOnUse">
<stop stop-color="#808080" stop-opacity="0.25"/>
<stop offset="0.54" stop-color="#808080" stop-opacity="0.12"/>
<stop offset="1" stop-color="#808080" stop-opacity="0.1"/>
</linearGradient>
<linearGradient id="paint1_linear" x1="66051" y1="82909.8" x2="67963.8" y2="70232.4" gradientUnits="userSpaceOnUse">
<stop stop-color="#808080" stop-opacity="0.25"/>
<stop offset="0.54" stop-color="#808080" stop-opacity="0.12"/>
<stop offset="1" stop-color="#808080" stop-opacity="0.1"/>
</linearGradient>
<linearGradient id="paint2_linear" x1="220037" y1="178697" x2="172098" y2="-117921" gradientUnits="userSpaceOnUse">
<stop stop-color="#808080" stop-opacity="0.25"/>
<stop offset="0.54" stop-color="#808080" stop-opacity="0.12"/>
<stop offset="1" stop-color="#808080" stop-opacity="0.1"/>
</linearGradient>
<linearGradient id="paint3_linear" x1="45395.3" y1="-4471.04" x2="43210.8" y2="-17796.4" gradientUnits="userSpaceOnUse">
<stop stop-color="#808080" stop-opacity="0.25"/>
<stop offset="0.54" stop-color="#808080" stop-opacity="0.12"/>
<stop offset="1" stop-color="#808080" stop-opacity="0.1"/>
</linearGradient>
<linearGradient id="paint4_linear" x1="190721" y1="390353" x2="190721" y2="90738.8" gradientUnits="userSpaceOnUse">
<stop stop-color="#808080" stop-opacity="0.25"/>
<stop offset="0.54" stop-color="#808080" stop-opacity="0.12"/>
<stop offset="1" stop-color="#808080" stop-opacity="0.1"/>
</linearGradient>
<linearGradient id="paint5_linear" x1="110624" y1="126817" x2="110624" y2="98331.5" gradientUnits="userSpaceOnUse">
<stop stop-color="#808080" stop-opacity="0.25"/>
<stop offset="0.54" stop-color="#808080" stop-opacity="0.12"/>
<stop offset="1" stop-color="#808080" stop-opacity="0.1"/>
</linearGradient>
<clipPath id="clip0">
<rect width="874.47" height="747.94" fill="white"/>
</clipPath>
</defs>
</svg>
