<svg width="100" height="100" viewBox="0 0 100 100" fill="none" xmlns="http://www.w3.org/2000/svg">
<rect width="100" height="100" fill="#E5E5E5"/>
<circle cx="50" cy="50" r="50" fill="#0A7BBB"/>
<path d="M98.5071 37.8732C95.6012 26.2497 88.6181 16.056 78.8289 9.14789C69.0397 2.23975 57.0953 -0.923548 45.1701 0.23383C33.2448 1.39121 22.1316 6.79231 13.8535 15.4539C5.57538 24.1156 0.682745 35.4618 0.0662368 47.4272C-0.550272 59.3926 3.15034 71.1816 10.4944 80.6481C17.8385 90.1147 28.3377 96.6294 40.0809 99.0062C51.824 101.383 64.0303 99.4642 74.4776 93.5987C84.925 87.7332 92.9188 78.3112 97.0039 67.0479L50 50L98.5071 37.8732Z" fill="#187BEF"/>
<path d="M85.3553 14.6447C78.3627 7.65203 69.4536 2.88999 59.7545 0.960735C50.0555 -0.968525 40.0021 0.0216432 30.8658 3.80603C21.7295 7.59041 13.9206 13.999 8.42652 22.2215C2.93245 30.444 -1.49321e-06 40.1109 0 50C1.49321e-06 59.8891 2.93245 69.5561 8.42652 77.7785C13.9206 86.001 21.7295 92.4096 30.8658 96.194C40.0021 99.9784 50.0555 100.969 59.7545 99.0393C69.4536 97.11 78.3627 92.348 85.3553 85.3553L50 50L85.3553 14.6447Z" fill="#2689FD"/>
<path d="M65.2388 2.37879C57.9002 0.0304439 50.1182 -0.590075 42.5002 0.565676C34.8822 1.72143 27.6343 4.62217 21.3225 9.04147C15.0107 13.4608 9.80557 19.279 6.11357 26.0421C2.42158 32.8051 0.342576 40.33 0.0388584 48.0291C-0.264859 55.7283 1.21493 63.3935 4.3627 70.4264C7.51047 77.4592 12.2411 83.6695 18.1852 88.5722C24.1293 93.475 31.1261 96.9377 38.6294 98.6899C46.1326 100.442 53.9394 100.437 61.4401 98.6736L50 50L65.2388 2.37879Z" fill="#479CFF"/>
<path d="M50 0C36.7392 -1.58134e-07 24.0215 5.26784 14.6447 14.6447C5.26784 24.0215 1.1593e-06 36.7392 0 50C-1.1593e-06 63.2608 5.26784 75.9785 14.6447 85.3553C24.0215 94.7322 36.7392 100 50 100L50 50L50 0Z" fill="#77B6FF"/>
<path d="M26.9696 53.6912L26.1004 51.8894C25.0285 50.2453 23.6977 49.6105 22.1081 49.9848C20.8976 50.3156 20.0243 50.6558 19.4882 51.0053L19.4346 51.0403C18.3624 51.7394 17.5496 52.524 16.9964 53.3941C16.4198 54.2284 16.116 55.0123 16.0848 55.7457C16.0101 57.2715 16.2919 58.6413 16.9304 59.8549C17.8159 61.213 19.1926 61.9963 21.0602 62.2047C22.9046 62.3774 24.9293 62.2797 27.1342 61.9117C29.3515 61.4847 31.5976 61.1407 33.8725 60.8799C36.183 60.5958 38.4702 60.8618 40.7341 61.6778C42.9979 62.4938 44.8639 64.0276 46.332 66.2793C49.1984 70.6754 49.9484 74.8724 48.5822 78.8702C47.2516 82.8448 44.8172 85.9856 41.2789 88.2926C37.7763 90.5763 34.3508 91.6893 31.0023 91.6314C27.6662 91.5145 25.1243 90.1158 23.3766 87.4353L23.3416 87.3817C22.4794 86.0593 21.9302 84.7874 21.6942 83.5661C21.4706 82.2857 21.4932 81.2267 21.7621 80.3893C22.3124 78.6552 23.0467 77.4379 23.9651 76.7372L24.5735 76.2641C25.5742 75.6116 26.6487 75.2676 27.797 75.232C28.922 75.1606 29.7641 75.5538 30.3234 76.4116C30.603 76.8405 30.6037 77.3494 30.3255 77.9382C30.0474 78.5271 29.916 79.224 29.9314 80.0289C29.9826 80.8105 30.1185 81.4095 30.3391 81.8259L30.6164 82.4856C32.0379 84.6657 33.9824 85.4607 36.45 84.8705C37.3279 84.6547 37.9813 84.4069 38.4102 84.1273C40.376 82.8456 41.564 81.2305 41.9745 79.282C42.4206 77.3103 42.0495 75.413 40.861 73.5902C39.4395 71.4101 37.3567 70.2468 34.6126 70.1004C32.5663 70.0085 30.4996 70.159 28.4128 70.5519C26.3617 70.9215 24.957 71.1498 24.1988 71.2367C23.4405 71.3236 22.6115 71.3803 21.7118 71.4066C20.8122 71.4329 19.7362 71.345 18.4838 71.1428C15.7895 70.7603 13.6151 69.3002 11.9605 66.7627C10.2827 64.1893 9.56974 61.5726 9.82175 58.9125C10.2496 54.1003 12.9653 50.063 17.969 46.8005C20.6138 45.0761 23.1855 44.1378 25.6841 43.9858C28.1594 43.7981 29.9796 44.5977 31.1447 46.3847C31.9837 47.6714 32.3075 48.9883 32.1162 50.3355C31.9607 51.6593 31.3111 52.6941 30.1674 53.4398C29.6313 53.7893 29.0253 54.0317 28.3493 54.1668C27.7092 54.2786 27.2492 54.1201 26.9696 53.6912ZM43.8586 41.304L56.3655 61.1889C60.3737 67.3363 62.9706 70.8894 64.156 71.8482C64.4031 71.9928 64.5965 72.1723 64.7363 72.3867C65.016 72.8156 64.6376 73.3679 63.6011 74.0437C62.5646 74.7195 61.2283 75.2089 59.592 75.5117C58.0149 75.8269 56.9583 75.5735 56.4223 74.7515C53.8746 69.2818 49.8743 62.3652 44.4212 54.0019L38.8586 45.9393C38.1347 44.9852 37.3609 44.2672 36.5375 43.7854C35.7497 43.2803 35.1251 43.0254 34.6636 43.0207L34.06 43.0323C33.7166 43.0525 33.4866 42.9732 33.3701 42.7945C33.0438 42.2941 33.4161 41.1855 34.4869 39.4687C35.5701 37.6928 36.8444 36.3271 38.3097 35.3716C38.8816 34.9988 39.3314 34.9856 39.6592 35.3322C40.4081 36.1682 41.8079 38.1588 43.8586 41.304ZM63.7197 52.6502L64.6471 53.9555C64.787 54.1699 64.9998 54.1839 65.2858 53.9975C66.3596 53.1446 67.1739 52.2061 67.7287 51.1822C68.2602 50.1226 68.5423 49.1491 68.5751 48.2619C68.5706 46.3802 68.2895 44.9336 67.7318 43.922L67.366 43.2437C66.1076 41.3137 64.71 40.8497 63.1731 41.8518C62.0294 42.5975 61.4264 43.7037 61.3641 45.1706C61.21 47.5122 61.9952 50.0054 63.7197 52.6502ZM80.0559 52.1602C80.9414 53.5183 81.4362 54.902 81.5401 56.3114C81.6565 57.6617 81.5204 58.82 81.1319 59.7865C80.7557 60.6939 80.1963 61.5935 79.4534 62.4853C78.507 63.6117 77.4977 64.5245 76.4255 65.2236C73.4233 67.1811 70.4733 67.5001 67.5756 66.1805C64.6778 64.861 62.0987 62.4679 59.8383 59.001C57.5545 55.4984 56.4028 51.8181 56.383 47.9599C56.3989 44.0784 58.1761 40.9842 61.7144 38.6771C64.9311 36.5798 67.8453 36.2841 70.4571 37.7901C71.481 38.3449 72.2493 39.0155 72.762 39.8018C73.2514 40.5523 73.6118 41.1832 73.8433 41.6944C74.0514 42.1699 74.2324 42.9943 74.3861 44.1674C74.5398 45.3406 74.4922 46.5176 74.2435 47.6985C73.9948 48.8794 73.3117 50.2925 72.1943 51.9379C71.0769 53.5833 69.5517 55.189 67.6185 56.755C67.3326 56.9415 67.2712 57.1598 67.4343 57.4099C67.6441 57.7316 68.0659 58.1442 68.6998 58.6477C69.3461 59.0922 69.9521 59.4356 70.5177 59.6781C71.9565 60.1662 73.4443 59.9092 74.9811 58.9071C76.518 57.9051 77.4962 56.5541 77.916 54.8543C78.1383 53.9453 78.1718 52.9812 78.0165 51.9618C77.973 51.5827 78.0585 51.3232 78.273 51.1834C78.5232 51.0203 78.8479 51.0887 79.2472 51.3886C79.6465 51.6885 79.9161 51.9457 80.0559 52.1602ZM88.6141 49.3305L89.8659 48.438C90.7236 47.8787 91.4236 47.7024 91.9659 47.9091C92.5206 48.0568 93.1126 48.6131 93.7418 49.5781C94.3476 50.5074 94.576 51.3263 94.4267 52.0348C94.3365 52.7558 93.6838 53.5124 92.4687 54.3047C91.2892 55.0737 90.2978 55.3891 89.4945 55.2507C88.727 55.089 87.8305 54.2219 86.8051 52.6493C85.7798 51.0767 85.4994 50.1389 85.964 49.836L86.8334 49.8804C87.413 49.9099 88.0066 49.7267 88.6141 49.3305ZM65.5266 20.8346C65.3743 20.6792 65.1817 20.4228 64.9486 20.0654C64.7156 19.708 64.7685 19.1642 65.1073 18.4339C65.4819 17.6804 66.0157 16.9758 66.7088 16.3201C67.8805 15.1487 68.8774 14.295 69.6994 13.759C70.5214 13.223 71.1655 13.3124 71.6315 14.0272L71.9438 14.7405C74.2676 21.273 78.7736 29.6681 85.4617 39.9256C86.2074 41.0693 86.7146 41.8082 86.9834 42.1423C87.2289 42.4407 87.3687 42.6551 87.4029 42.7856C87.437 42.9162 87.3453 43.2052 87.1278 43.6526C86.9226 44.0411 86.5341 44.4217 85.9623 44.7946C84.7113 45.6102 83.8 45.6187 83.2283 44.8199C74.9555 32.132 69.055 24.1369 65.5266 20.8346Z" fill="black"/>
</svg>
